<?xml version="1.0" standalone="no"?>
<!DOCTYPE svg PUBLIC "-//W3C//DTD SVG 20010904//EN"
 "http://www.w3.org/TR/2001/REC-SVG-20010904/DTD/svg10.dtd">
<svg version="1.0" xmlns="http://www.w3.org/2000/svg"
 width="540.000000pt" height="540.000000pt" viewBox="0 0 540.000000 540.000000"
 preserveAspectRatio="xMidYMid meet">
<metadata>
Created by potrace 1.11, written by Peter Selinger 2001-2013
</metadata>
<g transform="translate(0.000000,540.000000) scale(0.100000,-0.100000)"
fill="#000000" stroke="none">
<path d="M777 4884 c-4 -4 -7 -33 -7 -65 l0 -58 -62 -3 -63 -3 -3 -127 -3
-128 131 0 130 0 0 -130 0 -130 -65 0 -65 0 0 -65 0 -65 -65 0 -65 0 0 -125 0
-124 -62 -3 -63 -3 -3 -62 -3 -63 -59 0 -60 0 0 -515 0 -515 60 0 59 0 3 -62
3 -63 62 -3 62 -3 3 -62 3 -62 62 -3 62 -3 3 -62 3 -62 63 -3 62 -3 0 -59 0
-60 65 0 65 0 0 -195 0 -195 65 0 65 0 0 -130 0 -130 65 0 65 0 0 -65 0 -65
60 0 60 0 2 -382 3 -383 320 0 320 0 3 193 2 192 65 0 65 0 0 -193 0 -193 320
-2 320 -2 0 195 0 195 190 0 189 0 3 -62 3 -63 63 -3 62 -3 0 -64 0 -65 65 0
65 0 0 -63 0 -63 258 1 257 0 3 63 3 62 59 0 59 0 3 -63 3 -62 258 -2 257 -3
0 1030 0 1030 -65 0 -65 0 0 65 0 65 65 0 65 0 0 65 0 65 65 0 66 0 -3 63 -3
62 -62 3 -63 3 0 -66 0 -65 -130 0 -130 0 0 65 0 65 -65 0 -65 0 0 60 0 60
-125 0 -125 0 0 65 0 65 -130 0 -130 0 0 65 0 65 -320 0 -319 0 -3 63 -3 62
-62 3 -63 3 0 64 0 65 -65 0 -65 0 0 65 0 65 -65 0 -64 0 -3 63 -3 62 -62 3
-63 3 0 59 0 60 -65 0 -65 0 0 65 0 65 -65 0 -65 0 0 65 0 65 -60 0 -60 0 0
65 0 65 125 0 125 0 0 130 0 130 -65 0 -65 0 0 65 0 65 -252 -2 -253 -3 -3
-192 -2 -193 -255 0 -255 0 -2 193 -3 192 -251 3 c-138 1 -253 -1 -257 -4z
m381 -191 l3 -63 -196 0 -195 0 0 58 c0 32 3 62 7 66 4 3 90 5 192 4 l186 -3
3 -62z m1152 2 l0 -65 -190 0 -190 0 0 65 0 65 190 0 190 0 0 -65z m-120 -390
l0 -65 60 0 59 0 3 -62 3 -63 62 -3 62 -3 3 -62 3 -62 63 -3 62 -3 0 -59 0
-60 65 0 65 0 0 -65 0 -65 65 0 65 0 0 -65 0 -65 65 0 65 0 0 -65 0 -65 65 0
65 0 0 -65 0 -65 320 0 320 0 0 -65 0 -65 130 0 130 0 0 -66 0 -66 125 7 125
7 0 -66 0 -66 65 0 65 0 0 -130 0 -130 65 0 65 0 0 -900 0 -900 -192 2 -193 3
-3 63 -3 62 -59 0 -59 0 -3 62 -3 63 -62 3 -62 3 -3 62 -3 62 -127 3 -128 3 0
64 0 65 -65 0 -65 0 0 -65 0 -65 -255 0 -255 0 0 65 0 65 -65 0 -65 0 0 -65 0
-65 -65 0 -65 0 0 -195 0 -195 -190 0 -190 0 -2 193 -3 192 -62 3 -63 3 0 63
0 63 -322 -1 -323 -1 -3 62 -3 62 -62 3 -62 3 -3 63 -3 62 -59 0 -60 0 0 130
0 130 -65 0 -65 0 0 190 0 190 -65 0 -65 0 0 65 0 65 -65 0 -65 0 0 65 0 65
-65 0 -65 0 0 65 0 65 -65 0 -65 0 0 65 0 65 -60 0 -60 0 0 353 c0 193 -3 396
-7 450 l-6 97 66 0 66 0 3 63 3 62 63 3 62 3 0 124 0 125 65 0 65 0 0 65 0 65
65 0 65 0 0 65 0 65 580 0 580 0 0 -65z"/>
<path d="M1285 3980 c-4 -6 -4 -65 0 -131 l7 -119 -66 0 -66 0 0 -65 0 -65
-65 0 -65 0 0 -65 0 -65 -65 0 -65 0 0 -65 0 -65 -65 0 -65 0 0 -190 0 -189
63 -3 62 -3 3 -62 3 -62 127 -3 127 -3 3 -62 3 -63 59 0 60 0 0 -65 0 -65 195
0 195 0 0 65 0 65 65 0 64 0 3 128 3 127 63 3 62 3 0 189 0 190 -65 0 -65 0 0
65 0 65 -65 0 -65 0 0 65 0 65 -65 0 -65 0 0 65 0 65 -66 0 -65 0 3 128 3 127
-62 3 c-37 2 -64 -1 -68 -8z m255 -445 l0 -65 65 0 65 0 0 -65 0 -65 65 0 65
0 0 -190 0 -190 -450 0 -450 0 0 190 0 190 65 0 65 0 0 65 0 65 65 0 65 0 0
65 0 65 190 0 190 0 0 -65z"/>
<path d="M1160 3210 l0 -131 63 3 62 3 3 128 3 127 -66 0 -65 0 0 -130z"/>
<path d="M1412 3213 l3 -128 63 -3 62 -3 0 131 0 130 -65 0 -66 0 3 -127z"/>
<path d="M1670 3860 l0 -130 65 0 65 0 0 130 0 130 -65 0 -65 0 0 -130z"/>
<path d="M4630 3275 l0 -66 63 3 62 3 3 63 3 62 -66 0 -65 0 0 -65z"/>
<path d="M4760 3150 l0 -60 65 0 65 0 0 60 0 60 -65 0 -65 0 0 -60z"/>
</g>
</svg>
